# xmcd
#
# Track frame offsets:
#	150
#	5920
#	19396
#	35372
#	48624
#	63407
#	77183
#	96194
#	116468
#
# Disc length: 1589 seconds
#
# Revision: 1
# Processed by: cddbd v1.5.2PL0 Copyright (c) Steve Scherf et al.
# Submitted via: audiograbber 1.83.01
#
DISCID=75063309
DTITLE=New World Depression - Unseal Pandoras Curse
DYEAR=2008
DGENRE=Death Metal
TTITLE0=Cease Fire
TTITLE1=The nation of martyrs
TTITLE2=The storm is coming
TTITLE3=Unsaid
TTITLE4=Coffin nail
TTITLE5=Shadows of the dawn
TTITLE6=Demented and forsaken
TTITLE7=Visionary carnival
TTITLE8=M.S.I.T.E.
EXTD=
EXTT0=
EXTT1=
EXTT2=
EXTT3=
EXTT4=
EXTT5=
EXTT6=
EXTT7=
EXTT8=
PLAYORDER=
